<svg width="17" height="16" viewBox="0 0 17 16" fill="none" xmlns="http://www.w3.org/2000/svg">
<path d="M8.76074 0C6.58888 0 6.31511 0.0121673 5.4634 0.0486692C4.61169 0.0851711 4.02766 0.225095 3.52272 0.419772C2.99344 0.626616 2.54934 0.90038 2.10523 1.34449C1.66112 1.78859 1.38736 2.2327 1.18051 2.76198C0.979754 3.273 0.845913 3.85095 0.809411 4.70266C0.772909 5.55437 0.760742 5.82814 0.760742 8C0.760742 10.1719 0.772909 10.4456 0.809411 11.2973C0.845913 12.149 0.985837 12.7331 1.18051 13.238C1.38736 13.7673 1.66112 14.2114 2.10523 14.6555C2.54934 15.0996 2.99344 15.3734 3.52272 15.5802C4.03375 15.781 4.61169 15.9148 5.4634 15.9513C6.31511 15.9878 6.58888 16 8.76074 16C10.9326 16 11.2064 15.9878 12.0581 15.9513C12.9098 15.9148 13.4938 15.7749 13.9988 15.5802C14.528 15.3734 14.9721 15.0996 15.4163 14.6555C15.8604 14.2114 16.1341 13.7673 16.341 13.238C16.5417 12.727 16.6756 12.149 16.7121 11.2973C16.7486 10.4456 16.7607 10.1719 16.7607 8C16.7607 5.82814 16.7486 5.55437 16.7121 4.70266C16.6756 3.85095 16.5356 3.26692 16.341 2.76198C16.1341 2.2327 15.8604 1.78859 15.4163 1.34449C14.9721 0.90038 14.528 0.626616 13.9988 0.419772C13.4877 0.219011 12.9098 0.0851711 12.0581 0.0486692C11.2064 0.0121673 10.9326 0 8.76074 0V0ZM8.76074 1.44183C10.8961 1.44183 11.1516 1.44791 11.9972 1.49049C12.776 1.527 13.2018 1.65475 13.4817 1.76426C13.8528 1.91027 14.1204 2.08061 14.4003 2.36046C14.6801 2.6403 14.8566 2.90798 14.9965 3.27909C15.106 3.55894 15.2337 3.98479 15.2702 4.7635C15.3068 5.60913 15.3189 5.85856 15.3189 8C15.3189 10.1414 15.3128 10.3909 15.2702 11.2365C15.2337 12.0152 15.106 12.4411 14.9965 12.7209C14.8505 13.092 14.6801 13.3597 14.4003 13.6395C14.1204 13.9194 13.8528 14.0958 13.4817 14.2357C13.2018 14.3452 12.776 14.473 11.9972 14.5095C11.1516 14.546 10.9022 14.5582 8.76074 14.5582C6.6193 14.5582 6.36987 14.5521 5.52424 14.5095C4.74553 14.473 4.31968 14.3452 4.03983 14.2357C3.66873 14.0897 3.40105 13.9194 3.1212 13.6395C2.84135 13.3597 2.66492 13.092 2.525 12.7209C2.4155 12.4411 2.28774 12.0152 2.25124 11.2365C2.21473 10.3909 2.20257 10.1414 2.20257 8C2.20257 5.85856 2.20865 5.60913 2.25124 4.7635C2.28774 3.98479 2.4155 3.55894 2.525 3.27909C2.67101 2.90798 2.84135 2.6403 3.1212 2.36046C3.40105 2.08061 3.66873 1.90418 4.03983 1.76426C4.31968 1.65475 4.74553 1.527 5.52424 1.49049C6.36987 1.45399 6.6193 1.44183 8.76074 1.44183ZM8.76074 3.89354C6.49154 3.89354 4.64819 5.7308 4.64819 8.00608C4.64819 10.2814 6.48546 12.1125 8.76074 12.1125C11.036 12.1125 12.8672 10.2753 12.8672 8.00608C12.8672 5.73688 11.0299 3.89354 8.76074 3.89354ZM8.76074 10.6707C7.2885 10.6707 6.0961 9.47833 6.0961 8.00608C6.0961 6.53384 7.2885 5.34144 8.76074 5.34144C10.233 5.34144 11.4254 6.53384 11.4254 8.00608C11.4254 9.47833 10.233 10.6707 8.76074 10.6707ZM13.9927 3.72928C13.9927 4.25856 13.5607 4.69049 13.0315 4.69049C12.5022 4.69049 12.0702 4.25856 12.0702 3.72928C12.0702 3.2 12.5022 2.76806 13.0315 2.76806C13.5607 2.76806 13.9927 3.2 13.9927 3.72928Z" fill="white"/>
</svg>
