<svg width="16" height="16" viewBox="0 0 16 16" fill="none" xmlns="http://www.w3.org/2000/svg">
<path fill-rule="evenodd" clip-rule="evenodd" d="M15.5519 1.15367C14.922 1.55943 14.2195 1.86223 13.4625 2.02574C12.869 1.32324 12.0151 0.887207 11.0704 0.887207C9.25965 0.887207 7.7941 2.49811 7.7941 4.47843C7.7941 4.76306 7.81832 5.03558 7.87282 5.29599C5.14156 5.14459 2.72521 3.71537 1.10825 1.54731C0.823618 2.08024 0.666162 2.6919 0.666162 3.35201C0.666162 4.59349 1.24148 5.69569 2.12566 6.33762C1.59273 6.31946 1.08403 6.162 0.641938 5.89553V5.93793C0.641938 7.68206 1.76836 9.12945 3.27025 9.45647C2.99167 9.5352 2.70098 9.57759 2.4103 9.57759C2.19833 9.57759 1.99243 9.55943 1.78653 9.51703C2.20439 10.9402 3.42165 11.9818 4.85087 12.0061C3.73051 12.975 2.31945 13.5443 0.781226 13.5443C0.514762 13.5443 0.248297 13.5261 0 13.5019C1.44739 14.5132 3.17335 15.1128 5.03255 15.1128C11.0643 15.1128 14.3649 9.64421 14.3649 4.90235L14.3528 4.44209C15.0008 3.93338 15.5519 3.30356 16 2.57684C15.4065 2.86753 14.7706 3.05526 14.1166 3.1461C14.7949 2.70401 15.3096 2.00151 15.5579 1.16578L15.5519 1.15367Z" fill="white"/>
</svg>
