<svg width="20" height="14" viewBox="0 0 20 14" fill="none" xmlns="http://www.w3.org/2000/svg">
<path d="M7.8412 9.57618V3.9882L13.1813 6.79721L7.8412 9.58369V9.57618ZM19.5655 3.01931C19.5655 3.01931 19.3702 1.64485 18.7768 1.04399C18.0258 0.247854 17.1846 0.247854 16.794 0.20279C14.03 0 9.88412 0 9.88412 0H9.87661C9.87661 0 5.73069 0 2.95923 0.20279C2.57618 0.247854 1.72747 0.255365 0.976395 1.04399C0.390558 1.64485 0.195279 3.01931 0.195279 3.01931C0.195279 3.01931 0 4.62661 0 6.24142V7.75107C0 9.35837 0.195279 10.9732 0.195279 10.9732C0.195279 10.9732 0.390558 12.3476 0.976395 12.9485C1.72747 13.7446 2.71888 13.7146 3.15451 13.7972C4.73176 13.9474 9.87661 14 9.87661 14C9.87661 14 14.03 14 16.794 13.7897C17.177 13.7446 18.0258 13.7371 18.7768 12.9485C19.3702 12.3476 19.5655 10.9732 19.5655 10.9732C19.5655 10.9732 19.7607 9.36588 19.7607 7.75107V6.24142C19.7607 4.63412 19.5655 3.01931 19.5655 3.01931Z" fill="white"/>
</svg>
