<svg width="68" height="80" viewBox="0 0 68 80" fill="none" xmlns="http://www.w3.org/2000/svg">
<path fill-rule="evenodd" clip-rule="evenodd" d="M49.1763 15.7947V8.22986H47.3304V0H43.9947V8.22986H41.9688V15.7947H40.8376V69.2848H43.9356V49.9864H47.3895V69.2848H50.6057V15.7947H49.1763ZM47.3304 46.7098H44.1143V19.0714H45.1863V11.5656H46.1979V19.0714H47.3304V46.7098Z" fill="black"/>
<path fill-rule="evenodd" clip-rule="evenodd" d="M37.561 42.7789L33.035 47.1262L38.6331 52.6074V69.2848H20.2872L16.8923 49.0326H20.2872V22.2284H15.8794V69.2848H12.7223V19.0714H23.4442V52.1896H20.8232L23.146 66.1277H25.6783V23.5987H32.3189L37.561 28.7212V42.7789ZM31.0239 26.8001H28.9241V46.7098L34.3153 41.3186V30.0902L31.0239 26.8001ZM28.9241 66.1277H35.3578V53.9173L28.9536 47.5145L28.9241 66.1277Z" fill="black"/>
<path d="M0.01881 69.2848V29.2572H3.25111V66.1277H7.18199V29.2572H10.3982V69.2848H0.01881Z" fill="black"/>
<path d="M52.7498 69.2848V26.8001H59.9708L63.0553 66.1277H63.77V34.2011H67.1904V69.2848H60.1965L57.2181 30.2689H55.9673V69.2848H52.7498Z" fill="black"/>
<path d="M8.61139 74.4678V73.3957H1.64302V78.1608H8.85052V77.0888H10.3982V79.1133L9.51149 80H0.867855L0 79.1321V72.7401L1.02907 71.711H9.68345L10.4371 72.4633V74.4678H8.61139Z" fill="black"/>
<path d="M53.2267 73.3957V74.4678H55.0525V72.4633L54.2988 71.711H45.6444L44.6153 72.7401V79.1321L45.4832 80H54.1268L55.0135 79.1133V77.0888H53.4645V78.1608H46.257V73.3957H53.2267Z" fill="black"/>
<path fill-rule="evenodd" clip-rule="evenodd" d="M21.5124 71.5565H13.0796L12.3058 72.3236V79.1133L13.0729 79.8818H21.6575L22.5172 79.0206V72.5614L21.5124 71.5565ZM21.0019 78.0413H13.8535V73.3352H21.0019V78.0413Z" fill="black"/>
<path d="M26.1244 79.9342H24.3967V72.5614L25.231 71.711H27.4342L28.0307 72.0845L32.1402 77.5644L35.4034 72.1906L36.012 71.711H38.0715L38.9904 72.5023V79.8818H37.3823V73.3352H36.6072L32.6172 79.5903H31.2469L26.8982 73.3352H26.1244V79.9342Z" fill="black"/>
<path d="M42.7426 71.711H41.1345V79.8818H42.7426V71.711Z" fill="black"/>
<path d="M67.1904 73.9613H65.4372V73.2466H58.5575V74.8815H66.2755L67.1904 75.7964V79.1133L66.3319 79.9342H57.7541L56.8003 79.2033V77.3857H58.6179V78.1608H65.4372V76.671H57.7541L56.8003 75.7964V72.5614L57.6345 71.711H66.3292L67.1904 72.4419V73.9613Z" fill="black"/>
</svg>
