<svg width="16" height="11" viewBox="0 0 16 11" fill="none" xmlns="http://www.w3.org/2000/svg">
<path d="M0.79902 0C0.728136 0 0.66335 0.0137193 0.597811 0.0304876L7.65884 6.34147C7.825 6.4901 8.1756 6.4901 8.34176 6.34147L15.4028 0.0304876C15.3372 0.0137193 15.2725 0 15.2016 0H0.79902ZM0.0307318 0.573167C0.0124392 0.639477 0.000244141 0.708837 0.000244141 0.780483V9.3658C0.000244141 9.43744 0.0124392 9.5068 0.0307318 9.57311L5.26231 5.24377L0.0307318 0.573167ZM15.9698 0.573167L10.7382 5.24397L15.9698 9.57331C15.988 9.507 16.0002 9.43764 16.0002 9.36599V0.780678C16.0002 0.709032 15.988 0.639672 15.9698 0.573362V0.573167ZM5.85392 5.77431L0.603997 10.1157C0.667259 10.1317 0.730521 10.1462 0.799117 10.1462H15.2014C15.27 10.1462 15.3332 10.1317 15.3965 10.1157L10.1466 5.77431L8.85999 6.92064C8.37218 7.35662 7.62829 7.35662 7.14048 6.92064L5.85392 5.77431Z" fill="white"/>
</svg>
