<svg width="17" height="16" viewBox="0 0 17 16" fill="none" xmlns="http://www.w3.org/2000/svg">
<path fill-rule="evenodd" clip-rule="evenodd" d="M16.4322 1.17577C15.8024 1.58152 15.0999 1.88432 14.3429 2.04783C13.7494 1.34534 12.8955 0.909302 11.9508 0.909302C10.14 0.909302 8.67447 2.5202 8.67447 4.50052C8.67447 4.78515 8.69869 5.05767 8.75319 5.31808C6.02193 5.16668 3.60558 3.73746 1.98862 1.56941C1.70399 2.10234 1.54653 2.714 1.54653 3.3741C1.54653 4.61559 2.12185 5.71778 3.00603 6.35972C2.4731 6.34155 1.9644 6.18409 1.52231 5.91763V5.96002C1.52231 7.70415 2.64873 9.15154 4.15062 9.47857C3.87204 9.5573 3.58136 9.59969 3.29067 9.59969C3.07871 9.59969 2.8728 9.58152 2.6669 9.53913C3.08476 10.9623 4.30202 12.0039 5.73124 12.0282C4.61088 12.9971 3.19983 13.5664 1.6616 13.5664C1.39513 13.5664 1.12867 13.5482 0.880371 13.524C2.32776 14.5353 4.05372 15.1349 5.91292 15.1349C11.9447 15.1349 15.2452 9.6663 15.2452 4.92444L15.2331 4.46418C15.8811 3.95548 16.4322 3.32565 16.8804 2.59893C16.2869 2.88962 15.651 3.07736 14.9969 3.1682C15.6752 2.72611 16.19 2.02361 16.4383 1.18788L16.4322 1.17577Z" fill="black"/>
</svg>
