<svg width="17" height="17" viewBox="0 0 17 17" fill="none" xmlns="http://www.w3.org/2000/svg">
<path d="M8.88037 0.134888C6.70851 0.134888 6.43474 0.147055 5.58303 0.183557C4.73132 0.220059 4.14729 0.359983 3.64235 0.55466C3.11307 0.761504 2.66896 1.03527 2.22486 1.47937C1.78075 1.92348 1.50699 2.36759 1.30014 2.89687C1.09938 3.40789 0.965542 3.98584 0.92904 4.83755C0.892538 5.68926 0.880371 5.96302 0.880371 8.13489C0.880371 10.3068 0.892538 10.5805 0.92904 11.4322C0.965542 12.2839 1.10547 12.868 1.30014 13.3729C1.50699 13.9022 1.78075 14.3463 2.22486 14.7904C2.66896 15.2345 3.11307 15.5083 3.64235 15.7151C4.15338 15.9159 4.73132 16.0497 5.58303 16.0862C6.43474 16.1227 6.70851 16.1349 8.88037 16.1349C11.0522 16.1349 11.326 16.1227 12.1777 16.0862C13.0294 16.0497 13.6135 15.9098 14.1184 15.7151C14.6477 15.5083 15.0918 15.2345 15.5359 14.7904C15.98 14.3463 16.2538 13.9022 16.4606 13.3729C16.6614 12.8619 16.7952 12.2839 16.8317 11.4322C16.8682 10.5805 16.8804 10.3068 16.8804 8.13489C16.8804 5.96302 16.8682 5.68926 16.8317 4.83755C16.7952 3.98584 16.6553 3.40181 16.4606 2.89687C16.2538 2.36759 15.98 1.92348 15.5359 1.47937C15.0918 1.03527 14.6477 0.761504 14.1184 0.55466C13.6074 0.353899 13.0294 0.220059 12.1777 0.183557C11.326 0.147055 11.0522 0.134888 8.88037 0.134888V0.134888ZM8.88037 1.57671C11.0157 1.57671 11.2712 1.5828 12.1169 1.62538C12.8956 1.66188 13.3214 1.78964 13.6013 1.89915C13.9724 2.04515 14.2401 2.2155 14.5199 2.49534C14.7998 2.77519 14.9762 3.04287 15.1161 3.41398C15.2256 3.69382 15.3534 4.11968 15.3899 4.89839C15.4264 5.74401 15.4385 5.99344 15.4385 8.13489C15.4385 10.2763 15.4325 10.5258 15.3899 11.3714C15.3534 12.1501 15.2256 12.576 15.1161 12.8558C14.9701 13.2269 14.7998 13.4946 14.5199 13.7744C14.2401 14.0543 13.9724 14.2307 13.6013 14.3706C13.3214 14.4801 12.8956 14.6079 12.1169 14.6444C11.2712 14.6809 11.0218 14.6931 8.88037 14.6931C6.73893 14.6931 6.4895 14.687 5.64387 14.6444C4.86516 14.6079 4.43931 14.4801 4.15946 14.3706C3.78836 14.2246 3.52068 14.0543 3.24083 13.7744C2.96098 13.4946 2.78455 13.2269 2.64463 12.8558C2.53512 12.576 2.40737 12.1501 2.37087 11.3714C2.33436 10.5258 2.3222 10.2763 2.3222 8.13489C2.3222 5.99344 2.32828 5.74401 2.37087 4.89839C2.40737 4.11968 2.53512 3.69382 2.64463 3.41398C2.79064 3.04287 2.96098 2.77519 3.24083 2.49534C3.52068 2.2155 3.78836 2.03907 4.15946 1.89915C4.43931 1.78964 4.86516 1.66188 5.64387 1.62538C6.4895 1.58888 6.73893 1.57671 8.88037 1.57671ZM8.88037 4.02842C6.61117 4.02842 4.76782 5.86569 4.76782 8.14097C4.76782 10.4163 6.60509 12.2474 8.88037 12.2474C11.1557 12.2474 12.9868 10.4102 12.9868 8.14097C12.9868 5.87177 11.1496 4.02842 8.88037 4.02842ZM8.88037 10.8056C7.40813 10.8056 6.21573 9.61322 6.21573 8.14097C6.21573 6.66873 7.40813 5.47633 8.88037 5.47633C10.3526 5.47633 11.545 6.66873 11.545 8.14097C11.545 9.61322 10.3526 10.8056 8.88037 10.8056ZM14.1123 3.86417C14.1123 4.39344 13.6804 4.82538 13.1511 4.82538C12.6218 4.82538 12.1899 4.39344 12.1899 3.86417C12.1899 3.33489 12.6218 2.90295 13.1511 2.90295C13.6804 2.90295 14.1123 3.33489 14.1123 3.86417Z" fill="black"/>
</svg>
