<svg width="20" height="15" viewBox="0 0 20 15" fill="none" xmlns="http://www.w3.org/2000/svg">
<path d="M7.8412 9.71107V4.12309L13.1813 6.9321L7.8412 9.71858V9.71107ZM19.5655 3.1542C19.5655 3.1542 19.3702 1.77974 18.7768 1.17888C18.0258 0.382742 17.1846 0.382742 16.794 0.337677C14.03 0.134888 9.88412 0.134888 9.88412 0.134888H9.87661C9.87661 0.134888 5.73069 0.134888 2.95923 0.337677C2.57618 0.382742 1.72747 0.390253 0.976395 1.17888C0.390558 1.77974 0.195279 3.1542 0.195279 3.1542C0.195279 3.1542 0 4.7615 0 6.3763V7.88596C0 9.49326 0.195279 11.1081 0.195279 11.1081C0.195279 11.1081 0.390558 12.4825 0.976395 13.0834C1.72747 13.8795 2.71888 13.8495 3.15451 13.9321C4.73176 14.0823 9.87661 14.1349 9.87661 14.1349C9.87661 14.1349 14.03 14.1349 16.794 13.9246C17.177 13.8795 18.0258 13.872 18.7768 13.0834C19.3702 12.4825 19.5655 11.1081 19.5655 11.1081C19.5655 11.1081 19.7607 9.50077 19.7607 7.88596V6.3763C19.7607 4.76901 19.5655 3.1542 19.5655 3.1542Z" fill="black"/>
</svg>
