<svg width="43" height="41" viewBox="0 0 43 41" fill="none" xmlns="http://www.w3.org/2000/svg">
<path d="M42.9994 3.5002C43.0006 3.48661 43.0006 3.47301 42.9994 3.45941C42.9994 3.45763 42.9994 3.45586 42.9994 3.45468C42.9976 3.44167 42.9953 3.42866 42.9911 3.41566C42.9899 3.4127 42.9894 3.40915 42.9882 3.4062C42.987 3.40324 42.9864 3.40028 42.9852 3.39733L41.7466 0.15317C41.7117 0.0615276 41.6236 0.0012207 41.5254 0.0012207C41.5243 0.0012207 41.5225 0.0012207 41.5213 0.0012207L9.96483 0.531567C9.86136 0.53334 9.7709 0.601925 9.74193 0.701254C9.71296 0.800583 9.75139 0.907007 9.83771 0.964949L13.7884 3.59894L12.3428 17.3613L0.137169 23.026C0.137169 23.026 0.13303 23.029 0.130665 23.0302C0.124753 23.0331 0.11884 23.0373 0.112928 23.0408C0.10465 23.0461 0.0963728 23.0515 0.0886866 23.0574C0.0869129 23.0592 0.0845479 23.0597 0.0821829 23.0615C0.0792267 23.0645 0.0768617 23.0674 0.0739055 23.0704C0.0668106 23.0775 0.0597157 23.084 0.0538032 23.0917C0.0496645 23.097 0.0455258 23.1023 0.0419783 23.1076C0.0366571 23.1153 0.0319272 23.1236 0.0271972 23.1319C0.024241 23.1378 0.0212848 23.1437 0.0183286 23.1496C0.0147811 23.1585 0.0118249 23.1674 0.00945991 23.1768C0.00768617 23.1833 0.00591244 23.1892 0.00472995 23.1957C0.00295622 23.2064 0.00177373 23.2164 0.00118249 23.2271C0.00118249 23.2318 0 23.2359 0 23.2401V33.6211C0 33.7353 0.0815917 33.8328 0.193337 33.8535L35.9376 40.4595C35.95 40.4618 35.963 40.4624 35.976 40.463C35.9778 40.463 35.979 40.463 35.9808 40.463C35.9932 40.463 36.005 40.4618 36.0174 40.4601C36.021 40.4601 36.0245 40.4583 36.028 40.4577C36.0363 40.4559 36.0446 40.4541 36.0523 40.4518C36.0564 40.4506 36.0606 40.4488 36.0647 40.4471C36.0718 40.4441 36.0789 40.4411 36.086 40.4376C36.0901 40.4358 36.0943 40.4335 36.0978 40.4311C36.1049 40.427 36.112 40.4222 36.1185 40.4175C36.1209 40.4157 36.1232 40.4145 36.1256 40.4128C36.1262 40.4122 36.1268 40.411 36.128 40.4104C36.1398 40.4009 36.1504 40.3909 36.1599 40.3797C36.1617 40.3779 36.1629 40.3755 36.1646 40.3737C36.1723 40.3643 36.1794 40.3536 36.1853 40.343C36.1871 40.3394 36.1895 40.3359 36.1912 40.3324C36.1924 40.33 36.1942 40.3276 36.1954 40.3253L40.7958 30.3569C40.8083 30.3297 40.8154 30.3007 40.8171 30.2712L41.3481 20.7781L42.9988 3.50139C42.9988 3.50139 42.9988 3.49902 42.9988 3.49784L42.9994 3.5002ZM10.7311 0.991555L41.3634 0.476581L42.4206 3.24479H14.1106L10.7311 0.991555ZM14.2519 3.71778H42.5039L40.8999 20.5014L12.8241 17.3111L14.2519 3.71778ZM36.6193 28.5264L9.52021 24.4113L12.5976 23.0716L37.6753 26.5865L36.6193 28.527V28.5264ZM37.9165 26.1425L12.801 22.6222V17.7841L40.7373 20.9585L37.9171 26.1419L37.9165 26.1425ZM12.328 22.6731L8.64221 24.2783L1.04828 23.1254L12.328 17.8905V22.6737V22.6731ZM0.473587 23.5162L8.64044 24.7566L36.4975 28.987L35.7632 39.948L0.472995 33.4254V23.5162H0.473587ZM40.3483 30.202L36.303 38.9672L36.9805 28.8528L38.2529 26.5138L40.8177 21.8004L40.3483 30.202Z" fill="black"/>
</svg>
