<svg width="40" height="43" viewBox="0 0 40 43" fill="none" xmlns="http://www.w3.org/2000/svg">
<path d="M39.2027 17.8961C39.2068 17.8887 39.2101 17.8813 39.2135 17.8733C39.2155 17.8679 39.2182 17.8625 39.2195 17.8565C39.2222 17.8478 39.2242 17.839 39.2262 17.8303C39.2276 17.8249 39.2282 17.8196 39.2289 17.8142C39.2303 17.8021 39.2309 17.7907 39.2303 17.7786C39.2303 17.7759 39.2303 17.7739 39.2303 17.7712C39.2303 17.7712 39.2303 17.7706 39.2303 17.7699C39.2296 17.7551 39.2269 17.741 39.2235 17.7269C39.2222 17.7215 39.2202 17.7175 39.2188 17.7121C39.2162 17.7034 39.2135 17.6947 39.2094 17.6866C39.2068 17.6806 39.2034 17.6745 39.2 17.6692C39.196 17.6625 39.1927 17.6564 39.188 17.6497C39.1839 17.6437 39.1792 17.6383 39.1752 17.6329C39.1725 17.6296 39.1705 17.6262 39.1671 17.6228L34.7907 12.9785C34.7907 12.9785 34.786 12.9744 34.7833 12.9724C34.7732 12.963 34.7631 12.9543 34.7524 12.9462C34.7477 12.9429 34.7423 12.9402 34.7376 12.9368C34.7275 12.9308 34.7175 12.9261 34.7067 12.9221C34.7007 12.92 34.6953 12.9174 34.6893 12.9153C34.6779 12.912 34.6664 12.9093 34.6544 12.908C34.649 12.9073 34.6443 12.9059 34.6389 12.9053C34.6215 12.9039 34.6047 12.9039 34.5872 12.9066C34.5872 12.9066 34.5872 12.9066 34.5865 12.9066L19.8947 14.9995V8.22597L32.5944 9.08811C32.5991 9.08811 32.6044 9.08811 32.6091 9.08811C32.6091 9.08811 32.6098 9.08811 32.6105 9.08811C32.6273 9.08811 32.6441 9.08542 32.6602 9.08206C32.6642 9.08139 32.6682 9.08005 32.6723 9.07938C32.6884 9.07468 32.7045 9.06931 32.7193 9.06192C32.7199 9.06192 32.7206 9.06125 32.7213 9.06058C32.7354 9.05319 32.7488 9.04312 32.7616 9.03305C32.7649 9.03036 32.7676 9.02768 32.771 9.02499C32.7837 9.0129 32.7951 9.00015 32.8045 8.98605C32.8045 8.98537 32.8059 8.9847 32.8059 8.98403L37.0037 2.67648C37.0037 2.67648 37.0071 2.67044 37.0084 2.66775C37.0118 2.66238 37.0145 2.65701 37.0172 2.65164C37.0205 2.64559 37.0232 2.63955 37.0252 2.63351C37.0266 2.63082 37.0279 2.62813 37.0293 2.62478C37.0293 2.62276 37.0299 2.62075 37.0306 2.61941C37.034 2.60799 37.0373 2.59725 37.0387 2.58583C37.0387 2.58315 37.04 2.57979 37.0407 2.5771C37.0427 2.56368 37.0427 2.54958 37.0427 2.53615C37.0427 2.53212 37.042 2.52809 37.0413 2.52406C37.0407 2.51399 37.0387 2.50459 37.0366 2.49519C37.0353 2.49049 37.034 2.48579 37.0326 2.48109C37.0299 2.47236 37.0266 2.46363 37.0232 2.4549C37.0212 2.45087 37.0199 2.44617 37.0178 2.44214C37.0131 2.43274 37.0078 2.42334 37.0011 2.41461C36.999 2.41193 36.9977 2.40924 36.9957 2.40656C36.9957 2.40656 36.9957 2.40589 36.995 2.40521C36.987 2.39447 36.9782 2.38507 36.9682 2.37567C36.9648 2.37299 36.9614 2.3703 36.9581 2.36761C36.9507 2.36157 36.9426 2.35553 36.9346 2.35016C36.9306 2.34747 36.9259 2.34478 36.9212 2.3421C36.9124 2.3374 36.903 2.3327 36.8943 2.32934C36.8916 2.328 36.8889 2.32666 36.8862 2.32531L30.4122 0.0135284C30.4028 0.0101712 30.3934 0.0088283 30.3846 0.00681397C30.3799 0.00547108 30.3752 0.00412819 30.3705 0.00345674C30.3524 0.000770963 30.335 -0.000571927 30.3168 0.000770963C30.3141 0.000770963 30.3121 0.00144241 30.3094 0.00211385C30.294 0.00345674 30.2792 0.00681397 30.2645 0.0115141C30.2624 0.0121855 30.2598 0.0115141 30.2577 0.012857L19.8953 3.54264V1.61895C19.8953 1.6156 19.8947 1.61157 19.894 1.60821C19.894 1.60082 19.8926 1.59411 19.892 1.58672C19.8906 1.57934 19.8893 1.57195 19.8879 1.56457C19.8859 1.55785 19.8846 1.55047 19.8819 1.54375C19.8792 1.53637 19.8765 1.52898 19.8732 1.52226C19.8705 1.51622 19.8671 1.50951 19.8638 1.50346C19.8597 1.49608 19.8544 1.48869 19.8497 1.48198C19.847 1.47862 19.845 1.47459 19.8423 1.47124C19.8409 1.46922 19.8389 1.46788 19.8376 1.46654C19.8356 1.46452 19.8349 1.46251 19.8329 1.46049C19.8007 1.42558 19.0265 0.603057 17.9267 0.581571C17.2458 0.566799 16.6026 0.862235 16.011 1.45378C16.0077 1.45713 16.005 1.46116 16.0016 1.46519C15.9983 1.46922 15.9942 1.47191 15.9916 1.47594C15.9895 1.47862 15.9889 1.48131 15.9869 1.48332C15.9822 1.49004 15.9781 1.49608 15.9741 1.50346C15.9701 1.51018 15.966 1.51756 15.9627 1.52495C15.96 1.53167 15.9573 1.53838 15.9553 1.54509C15.9526 1.55315 15.9499 1.56121 15.9486 1.56927C15.9472 1.57598 15.9459 1.58337 15.9452 1.59008C15.9439 1.59814 15.9432 1.6062 15.9432 1.61492C15.9432 1.61828 15.9425 1.62097 15.9425 1.62432L16.0681 10.3853L4.27552 11.5684C4.27014 11.5684 4.26544 11.5704 4.26074 11.5711C4.25202 11.5725 4.24329 11.5738 4.23456 11.5765C4.22784 11.5785 4.2218 11.5812 4.21576 11.5832C4.2077 11.5866 4.19964 11.5892 4.19159 11.5933C4.18554 11.5966 4.1795 11.6007 4.17346 11.604C4.16607 11.6087 4.15936 11.6134 4.15264 11.6181C4.1466 11.6228 4.14123 11.6282 4.13518 11.6336C4.13116 11.6376 4.12713 11.6403 4.12377 11.6443C4.12175 11.6463 4.12041 11.649 4.11907 11.651C4.11705 11.653 4.11504 11.655 4.11303 11.6571L0.0487714 16.9272C0.0487714 16.9272 0.0460857 16.9313 0.0447428 16.9333C0.0400427 16.94 0.0353425 16.9474 0.0313139 16.9548C0.0279567 16.9608 0.0245994 16.9668 0.0212422 16.9729C0.017885 16.9803 0.0151992 16.9883 0.0125134 16.9957C0.0104991 17.0024 0.00781331 17.0091 0.00579898 17.0165C0.00378464 17.0239 0.0031132 17.032 0.00177031 17.0394C0.00042742 17.0474 -0.000244025 17.0555 -0.000915469 17.0635C-0.000915469 17.0662 -0.00158691 17.0682 -0.00158691 17.0709C-0.00158691 17.0763 -0.000244025 17.0817 -0.000244025 17.087C-0.000244025 17.0924 -0.000244025 17.0978 -0.000244025 17.1031C-0.000244025 17.1058 0.00109886 17.1078 0.00177031 17.1105C0.0031132 17.1186 0.00512753 17.1266 0.00781331 17.1347C0.00982765 17.1414 0.011842 17.1481 0.0138563 17.1548C0.0165421 17.1629 0.0205708 17.1703 0.0245994 17.1777C0.0279567 17.1837 0.0306424 17.1904 0.0346711 17.1958C0.0393712 17.2025 0.0440713 17.2092 0.0494429 17.2159C0.0534716 17.2213 0.0581717 17.2274 0.0628718 17.2321C0.0689148 17.2381 0.0749578 17.2435 0.0816722 17.2488C0.0857009 17.2522 0.0890581 17.2562 0.0930868 17.2589L6.43421 21.9798C6.43421 21.9798 6.43622 21.9805 6.4369 21.9812C6.44898 21.9899 6.46107 21.9966 6.47383 22.0027C6.47785 22.0047 6.48188 22.006 6.48591 22.0074C6.49665 22.0121 6.5074 22.0154 6.51814 22.0181C6.52217 22.0188 6.52553 22.0201 6.52956 22.0208C6.54433 22.0235 6.5591 22.0255 6.57387 22.0255C6.58999 22.0255 6.60543 22.0235 6.62154 22.0201C6.6249 22.0195 6.62826 22.0188 6.63229 22.0174C6.64773 22.0134 6.66317 22.0087 6.67794 22.0013C6.67794 22.0013 6.67862 22.0013 6.67929 22.0007C6.68936 21.9953 6.69943 21.9899 6.7095 21.9832L16.1373 15.3762L16.5213 42.2152C16.5227 42.2877 16.5569 42.3555 16.6147 42.3992C16.9819 42.6771 17.6393 42.9994 18.343 42.9994C18.8432 42.9994 19.3669 42.8363 19.8255 42.3777C19.8698 42.3334 19.8947 42.2736 19.8947 42.2112V20.2072L36.1121 22.0248C36.1195 22.0255 36.1275 22.0262 36.1349 22.0262C36.1362 22.0262 36.1369 22.0262 36.1383 22.0262C36.155 22.0262 36.1718 22.0235 36.1879 22.0201C36.192 22.0195 36.1953 22.0188 36.1994 22.0174C36.2155 22.0134 36.2309 22.008 36.2457 22C36.2464 22 36.247 21.9993 36.2477 21.9986C36.2618 21.9913 36.2746 21.9825 36.2866 21.9725C36.2893 21.9698 36.2927 21.9678 36.2954 21.9651C36.3075 21.9537 36.3189 21.9416 36.3289 21.9281C36.3289 21.9281 36.3289 21.9281 36.3296 21.9275L39.1873 17.921C39.1873 17.921 39.1906 17.9149 39.1927 17.9116C39.196 17.9062 39.1994 17.9008 39.2021 17.8954L39.2027 17.8961ZM18.5558 19.5841V15.6663L34.4972 13.3954L37.1333 17.9022L35.9738 21.536L18.5558 19.5835V19.5841ZM37.5194 17.6316L35.8663 14.8061L38.4789 17.5785L37.5194 17.6316ZM37.5637 18.0996L38.5212 18.0465L36.8191 20.4328L37.5637 18.0996ZM30.2873 0.498983L33.9916 3.44595L32.4393 8.60668L18.3765 7.65189V4.55652L30.2873 0.498983ZM34.3106 3.09882L31.5865 0.932065L36.0751 2.53413L34.3106 3.09882ZM33.2907 7.40681L34.4516 3.54734L36.2403 2.9746L33.2907 7.40681ZM19.2883 1.60015C18.159 2.35083 17.0357 1.86672 16.5576 1.58807C16.9907 1.22347 17.4459 1.04352 17.9132 1.05024C18.5216 1.06031 19.0245 1.38798 19.2883 1.60015ZM6.6155 21.4769L2.81244 17.0582L5.68555 13.1289L16.9866 10.7909L17.1854 14.0696L6.6155 21.4769ZM4.33057 12.1445L5.23367 12.9509L2.39346 16.8359H0.71283L4.33057 12.1452V12.1445ZM2.40487 17.3052L5.01075 20.3328L0.943807 17.3052H2.4042H2.40487ZM5.61773 12.6629L4.8543 11.9814L12.7364 11.1904L5.6184 12.6629H5.61773ZM19.426 42.1111C18.4913 42.9585 17.3257 42.3065 16.9913 42.0876L16.6046 15.0499L17.5627 14.3784C17.6299 14.3314 17.6675 14.2535 17.6621 14.1716L17.4385 10.4908C17.4385 10.4908 17.4385 10.4881 17.4378 10.4867C17.4378 10.4847 17.4378 10.4834 17.4378 10.482C17.4372 10.4726 17.4345 10.4646 17.4325 10.4558C17.4311 10.4505 17.4305 10.4451 17.4291 10.4397C17.415 10.3914 17.3861 10.3498 17.3479 10.3202C17.3479 10.3202 17.3479 10.3195 17.3465 10.3189C17.3452 10.3175 17.3432 10.3168 17.3418 10.3162C17.3304 10.3081 17.319 10.3007 17.3062 10.2947C17.3029 10.2927 17.2989 10.2913 17.2948 10.29C17.2841 10.2853 17.2733 10.2813 17.2619 10.2786C17.2566 10.2772 17.2512 10.2766 17.2451 10.2752C17.2351 10.2732 17.2257 10.2725 17.2156 10.2719C17.2082 10.2719 17.2015 10.2719 17.1941 10.2719C17.1894 10.2719 17.1847 10.2719 17.18 10.2719L16.5361 10.3363L16.4172 2.04263C16.7738 2.23198 17.3485 2.46564 18.0126 2.46564C18.4558 2.46564 18.9392 2.3609 19.424 2.07084V3.70245L18.065 4.16574C17.9696 4.19797 17.9058 4.28727 17.9058 4.38799V7.87145C17.9058 7.99499 18.0019 8.09772 18.1247 8.10578L19.424 8.19374V15.068L18.2859 15.2298C18.1697 15.2466 18.0838 15.3453 18.0838 15.4621V19.7936C18.0838 19.9131 18.1737 20.0139 18.2926 20.0273L19.4233 20.1542V42.1111H19.426Z" fill="black"/>
</svg>
