<svg width="14" height="14" viewBox="0 0 14 14" fill="none" xmlns="http://www.w3.org/2000/svg">
<path d="M9.91778 8.71913C9.82318 8.84328 9.83649 9.03395 9.94882 9.14629L13.8348 13.0308C14.0551 13.2525 14.0551 13.6131 13.8348 13.8348C13.6131 14.0551 13.2525 14.0551 13.0308 13.8348L9.14627 9.94884C9.03541 9.83798 8.84327 9.82468 8.71763 9.9178C8.71763 9.9178 8.67182 9.95771 8.52696 10.0538C7.65638 10.6347 6.61139 10.9731 5.48657 10.9731C2.45655 10.9731 0 8.51659 0 5.48657C0 2.45655 2.45655 0 5.48657 0C8.5166 0 10.9731 2.45655 10.9731 5.48657C10.9731 6.61582 10.6317 7.66523 10.0479 8.53729C9.95328 8.67771 9.91781 8.71909 9.91781 8.71909L9.91778 8.71913ZM5.48652 9.83801C7.88987 9.83801 9.83794 7.88994 9.83794 5.48659C9.83794 3.08325 7.88987 1.13518 5.48652 1.13518C3.08318 1.13518 1.13511 3.08325 1.13511 5.48659C1.13511 7.88994 3.08318 9.83801 5.48652 9.83801Z" fill="white"/>
</svg>
